      <svg
        version="1.0"
        xmlns="http://www.w3.org/2000/svg"
        width="200"
        height="200"
        viewBox="0 0 200 200"
        preserveAspectRatio="xMidYMid meet"
      >
        <g transform="translate(0.000000,200.000000) scale(0.100000,-0.100000)" fill="#014188" stroke="none">
          <path
            d="M495 1976 c-23 -24 -25 -32 -25 -129 0 -162 -20 -151 303 -155 259
-3 265 -3 285 -25 21 -22 21 -32 24 -441 l3 -418 24 -19 c19 -16 40 -19 126
-19 86 0 107 3 126 19 l24 19 0 576 c0 539 -1 576 -18 593 -16 17 -50 18 -432
21 l-415 3 -25 -25z"
          />
          <path
            d="M185 1665 l-25 -24 0 -411 0 -411 25 -24 c23 -23 31 -25 130 -25 113
0 137 10 150 62 3 13 4 202 3 421 l-3 399 -24 19 c-19 16 -40 19 -128 19 -97
0 -106 -2 -128 -25z"
          />
          <path
            d="M664 1528 c-12 -5 -27 -21 -33 -34 -8 -18 -11 -193 -11 -580 l0 -555
25 -24 24 -25 414 0 414 0 21 23 c20 21 22 34 22 130 0 157 19 147 -290 147
-262 0 -298 5 -314 45 -3 9 -6 199 -6 422 l0 405 -29 29 c-28 28 -33 29 -123
28 -51 0 -103 -5 -114 -11z"
          />
          <path
            d="M1569 1510 l-30 -29 3 -410 c3 -386 4 -410 22 -430 17 -19 30 -21
132 -21 167 0 154 -39 154 451 0 270 -4 406 -11 422 -17 37 -50 47 -150 47
-87 0 -92 -1 -120 -30z"
          />
          <path
            d="M1594 300 c-42 -17 -54 -48 -54 -142 0 -143 16 -158 166 -158 87 0
97 2 119 25 23 22 25 32 25 119 0 109 -11 141 -53 156 -36 12 -173 12 -203 0z"
          />
        </g>
      </svg>